<svg xmlns="http://www.w3.org/2000/svg" xmlns:xlink="http://www.w3.org/1999/xlink" viewBox="0 0 515 70" class="logo-desktop" preserveAspectRatio="none">
<g fill="white">
	<path d="M41.976,14.366H16.792v13.026l19.161-0.008v14.131l-19.161,0.015V54.58l25.131-0.026v14.135L0,68.705V0.227l41.976,0.034
		V14.366z M64.85,54.587V0.244L48.066,0.247V68.7l38.985-0.012V54.58L64.85,54.587z M159.625-0.011v68.68h16.621V28.334
		l20.708,40.343H215.5l-0.021-68.417h-16.809v40.331L178.662-0.011H159.625z M221.433,0.16v68.564h16.774V0.16H221.433z M344.945,0
		h-42.328v68.467l42.223-0.031V54.299h-25.431v-13.17l19.475-0.008V27.01l-19.475,0.006V14.134l25.536-0.02V0z M128.965,53.678
		c-4.768,0-7.623-3.511-7.623-7.841V0.019H104.54v46.338c0,12.3,10.154,22.248,23.651,22.248l1.7,0.063
		c13.518,0,23.555-9.963,23.555-22.242V0.007h-16.81v45.91C136.637,50.255,133.721,53.678,128.965,53.678 M380.093,43.569h-12.4
		v24.883h-16.811V0h34.766c11.799,0,16.422,7.578,16.422,12.629v10.688c0,10.232-10.755,12.818-10.755,12.818
		c9.412,0,10.755,7.244,10.755,10.878c0,0.271,0.036,16.473,0.036,16.473c0,3.373,4.116,4.976,4.116,4.976l-16.853,0.012
		c0,0-4.098,0.228-4.098-4.174V47.715c0,0-0.058-4.12-5.179-4.12 M385.303,25.224v-6.586c0-1.367-0.297-5.37-4.996-5.37
		l-12.631,0.006L367.67,30.25c0,0,11.543,0.053,12.624,0.053C381.169,30.302,385.303,30.048,385.303,25.224 M484.826,68.57
		c-13.516,0-22.613-10.042-22.613-21.808v-25C462.213,9.993,471.311,0,484.826,0l6.658,0.036c13.498,0,22.82,9.917,22.82,21.683
		v25.014c0,11.751-9.322,21.838-22.82,21.838H484.826z M488.76,54.474c5.419,0,8.741-3.651,8.741-8.181V22.682
		c0-4.511-3.877-8.137-9.276-8.137c-5.421,0-9.239,3.66-9.239,8.151v23.608C478.985,50.829,483.359,54.474,488.76,54.474
		 M456.299,39.818c0,0,0.837-8.219-8.229-10.344c0,0-8.536-1.588-17.869-2.578c0,0-5.497-0.504-5.497-4.934v-2.994
		c0-4.029,3.397-5.667,7.299-5.667c3.888,0,7.501,1.723,7.501,5.863v4.645h16.792V13.457c0-7.745-9.504-13.399-21.215-13.399
		l-5.993,0.02c-11.722,0-21.204,5.647-21.204,13.406v13.213c0.044,7.35,5.52,9.276,5.52,9.276c6.67,2.9,19.067,3.713,19.067,3.713
		c7.118,0.586,6.997,5.155,6.997,5.155v3.091c0,4.833-3.029,6.989-6.924,6.989c-3.907,0-7.84-2.125-7.84-6.964l-0.045-4.268h-16.775
		V54.27c0,7.748,9.482,14.432,21.204,14.432l6.424-0.035c11.698,0,20.788-6.675,20.788-14.415V39.818z"></path>
	<polygon points="261.131,68.668 279.918,68.668 298.205,0.003 280.123,0.003 270.576,45.549 260.922,0.003 242.846,0.003 	"></polygon>
</g>
</svg>